<?xml version="1.0" encoding="utf-8"?>
<!-- Generator: Adobe Illustrator 27.2.0, SVG Export Plug-In . SVG Version: 6.00 Build 0)  -->
<svg version="1.1" id="a" xmlns="http://www.w3.org/2000/svg" xmlns:xlink="http://www.w3.org/1999/xlink" x="0px" y="0px"
	 viewBox="0 0 1450.6 140.1" style="enable-background:new 0 0 1450.6 140.1;" xml:space="preserve">
<style type="text/css">
	.st0{fill:#78FAAE;}
</style>
<path class="st0" d="M0,140l18.5-29.6H126c6.1,0,10.1-4,10.1-10.1V83.1H43.7C16.1,83.1,4,70.9,4,43.9V32.3C4,12.2,15.9,0,34.7,0h2.1
	v43.4c0,6.1,4,10.1,10.1,10.1h89.5c20.4,0,32.6,12.2,32.6,32v15.3c0,26.2-13,39.2-39.7,39.2H0L0,140z M643.9,109.8H727
	c13.8,0,22.5-8.5,22.5-21.7V51.9c0-13.2-8.7-21.7-22.5-21.7h-83.1V109.8z M610.5,140V0h117.2c34.9,0,55,20.1,55,53.5v33.1
	c0,33.3-20.1,53.5-55,53.5L610.5,140L610.5,140z M448.9,109.8H519c12.7,0,20.9-7.9,20.9-20.4V50.5c0-12.4-8.2-20.4-20.9-20.4h-70.1
	c-12.7,0-20.9,7.9-20.9,20.4v38.9C428,101.9,436.2,109.8,448.9,109.8z M519.9,140h-71.7c-33.9,0-53.5-19.6-53.5-52.1V52.1
	c0-32.6,19.6-52.1,53.5-52.1h71.7c33.9,0,53.5,19.6,53.5,52.1v35.7C573.3,120.4,553.7,140,519.9,140z M796.5,140L875.1,0h46.3
	l78.6,140h-38.1l-13.5-24.1h-67l-18-28.6L833.8,140H796.5z M864.2,85.7h67.2l-33.6-59.5L864.2,85.7L864.2,85.7z M69.6,29.1L50.5,0
	h115.1l-18.5,29.1H69.6z M205.5,140V0h33.3v54.5H283L340.5,0h44.2l-73,69.6L386,140h-46.8l-57.4-55.3h-42.9V140H205.5L205.5,140z"/>
<g>
	<path class="st0" d="M1184.6,137.7h-7.7l-5.4-9.6c-5.9,4-12.2,7-18.9,8.9c-6.7,2-14.2,3-22.4,3c-13.5,0-25.5-3.1-36-9.2
		c-10.5-6.2-18.7-14.5-24.5-25.2c-5.8-10.6-8.8-22.5-8.8-35.6c0-13.2,3-25.1,9-35.8c6-10.6,14.4-19,25-25.1s22.6-9.1,36-9.1
		c21.2,0,39,7,53.7,21l-8.8,9.4c-5.5-5.4-12.3-9.6-20.4-12.8c-8.1-3.1-16.6-4.7-25.6-4.7c-10.9,0-20.5,2.5-28.7,7.6
		c-8.3,5.1-14.6,11.9-18.9,20.6c-4.4,8.7-6.5,18.2-6.5,28.7c0,10.9,2.4,20.7,7.1,29.5s11.3,15.6,19.7,20.6
		c8.4,4.9,17.9,7.4,28.4,7.4c8.1,0,15.6-1,22.7-3.1c7.1-2,12.9-5.1,17.5-9.2V78.3h-44.6V65.6h58.3v72.1H1184.6z"/>
	<path class="st0" d="M1240,130.7c-10.4-6.2-18.5-14.7-24.3-25.4s-8.8-22.5-8.8-35.3s2.9-24.6,8.8-35.3
		c5.8-10.7,13.9-19.2,24.3-25.4s22-9.3,35-9.3c18.5,0,33.8,6.3,46.2,19l-8.3,9.4c-4.7-5-10.4-8.8-16.9-11.5s-13.5-4-21-4
		c-10.3,0-19.5,2.5-27.6,7.4s-14.5,11.7-19,20.4c-4.6,8.7-6.8,18.4-6.8,29.3s2.3,20.7,6.8,29.3c4.5,8.7,10.9,15.5,19,20.4
		s17.3,7.4,27.6,7.4c7.4,0,14.5-1.4,21.1-4.2c6.6-2.8,12.2-6.7,16.8-11.7l8.3,9.4c-5.8,6.3-12.6,11.1-20.4,14.4s-16.4,5-25.8,5
		C1262,140,1250.4,136.9,1240,130.7z"/>
	<path class="st0" d="M1365.4,130.7c-10.4-6.2-18.5-14.7-24.3-25.4s-8.8-22.5-8.8-35.3s2.9-24.6,8.8-35.3
		c5.8-10.7,13.9-19.2,24.3-25.4s22-9.3,35-9.3c18.5,0,33.8,6.3,46.2,19l-8.3,9.4c-4.7-5-10.4-8.8-16.9-11.5s-13.5-4-21-4
		c-10.3,0-19.5,2.5-27.6,7.4s-14.5,11.7-19,20.4c-4.6,8.7-6.8,18.4-6.8,29.3s2.3,20.7,6.8,29.3c4.5,8.7,10.9,15.5,19,20.4
		s17.3,7.4,27.6,7.4c7.4,0,14.5-1.4,21.1-4.2c6.6-2.8,12.2-6.7,16.8-11.7l8.3,9.4c-5.8,6.3-12.6,11.1-20.4,14.4s-16.4,5-25.8,5
		C1387.4,140,1375.7,136.9,1365.4,130.7z"/>
</g>
</svg>
